# Blender 4.5.1 LTS
# www.blender.org
o Glass
v 0.051110 0.047500 -0.158969
v 0.051110 0.047500 -0.163969
v -0.078890 0.047500 -0.158969
v -0.078890 0.047500 -0.163969
v 0.051110 -0.047500 -0.158969
v 0.051110 -0.047500 -0.163969
v -0.078890 -0.047500 -0.158969
v -0.078890 -0.047500 -0.163969
v -0.079353 0.115000 0.156031
v -0.079353 0.115000 0.151031
v -0.079353 -0.115000 0.156031
v -0.079353 -0.115000 0.151031
v 0.051575 0.115000 0.156031
v 0.051575 0.115000 0.151031
v 0.051575 -0.115000 0.156031
v 0.051575 -0.115000 0.151031
v -0.078890 -0.120000 0.042531
v -0.078890 -0.120000 -0.087469
v -0.078889 0.120000 0.042531
v -0.078890 0.120000 -0.087469
v -0.083890 -0.120000 0.042531
v -0.083890 -0.120000 -0.087469
v -0.083889 0.120000 0.042531
v -0.083890 0.120000 -0.087469
v 0.056575 -0.120000 0.156031
v 0.056574 -0.120000 -0.178969
v 0.056575 -0.115000 0.156031
v 0.056574 -0.115000 -0.178969
v -0.079353 -0.120000 0.156031
v -0.079354 -0.120000 -0.178969
v -0.079353 -0.115000 0.156031
v -0.079354 -0.115000 -0.178969
v 0.056575 0.115000 0.156031
v 0.056574 0.115000 -0.178969
v 0.056575 0.120000 0.156031
v 0.056574 0.120000 -0.178969
v -0.079353 0.115000 0.156031
v -0.079354 0.115000 -0.178969
v -0.079353 0.120000 0.156031
v -0.079354 0.120000 -0.178969
v 0.051575 0.115000 0.156031
v 0.051574 0.115000 -0.178969
v 0.051575 -0.115000 0.156031
v 0.051574 -0.115000 -0.178969
v 0.056575 0.115000 0.156031
v 0.056574 0.115000 -0.178969
v 0.056575 -0.115000 0.156031
v 0.056574 -0.115000 -0.178969
vn -0.0000 1.0000 -0.0000
vn -1.0000 -0.0000 -0.0000
vn -0.0000 -1.0000 -0.0000
vn 1.0000 -0.0000 -0.0000
vn -0.0000 -0.0000 1.0000
vn -0.0000 -0.0000 -1.0000
vt 0.375000 0.000000
vt 0.625000 0.000000
vt 0.625000 0.250000
vt 0.375000 0.250000
vt 0.625000 0.500000
vt 0.375000 0.500000
vt 0.625000 0.750000
vt 0.375000 0.750000
vt 0.625000 1.000000
vt 0.375000 1.000000
vt 0.125000 0.500000
vt 0.125000 0.750000
vt 0.875000 0.500000
vt 0.875000 0.750000
s 0
f 1/1/1 2/2/1 4/3/1 3/4/1
f 3/4/2 4/3/2 8/5/2 7/6/2
f 7/6/3 8/5/3 6/7/3 5/8/3
f 5/8/4 6/7/4 2/9/4 1/10/4
f 3/11/5 7/6/5 5/8/5 1/12/5
f 8/5/6 4/13/6 2/14/6 6/7/6
f 9/1/2 10/2/2 12/3/2 11/4/2
f 11/4/3 12/3/3 16/5/3 15/6/3
f 15/6/4 16/5/4 14/7/4 13/8/4
f 13/8/1 14/7/1 10/9/1 9/10/1
f 11/11/5 15/6/5 13/8/5 9/12/5
f 16/5/6 12/13/6 10/14/6 14/7/6
f 17/1/4 18/2/4 20/3/4 19/4/4
f 19/4/1 20/3/1 24/5/1 23/6/1
f 23/6/2 24/5/2 22/7/2 21/8/2
f 21/8/3 22/7/3 18/9/3 17/10/3
f 19/11/5 23/6/5 21/8/5 17/12/5
f 24/5/6 20/13/6 18/14/6 22/7/6
f 25/1/4 26/2/4 28/3/4 27/4/4
f 27/4/1 28/3/1 32/5/1 31/6/1
f 31/6/2 32/5/2 30/7/2 29/8/2
f 29/8/3 30/7/3 26/9/3 25/10/3
f 27/11/5 31/6/5 29/8/5 25/12/5
f 32/5/6 28/13/6 26/14/6 30/7/6
f 33/1/4 34/2/4 36/3/4 35/4/4
f 35/4/1 36/3/1 40/5/1 39/6/1
f 39/6/2 40/5/2 38/7/2 37/8/2
f 37/8/3 38/7/3 34/9/3 33/10/3
f 35/11/5 39/6/5 37/8/5 33/12/5
f 40/5/6 36/13/6 34/14/6 38/7/6
f 41/1/2 42/2/2 44/3/2 43/4/2
f 43/4/3 44/3/3 48/5/3 47/6/3
f 47/6/4 48/5/4 46/7/4 45/8/4
f 45/8/1 46/7/1 42/9/1 41/10/1
f 43/11/5 47/6/5 45/8/5 41/12/5
f 48/5/6 44/13/6 42/14/6 46/7/6
